# xmcd
# 
# Track frame offsets:
#     150
#     16964
#     31303
#     45856
#     65753
#     75231
#     94049
#     108961
#     121583
# 
# Disc length: 1784
# 
# Revision: 2
# Processed by: cddbd v1.5.2PL0 Copyright (c) Steve Scherf et al.
# Submitted via: fre:ac v1.0.31
# 
DISCID=5a06f609
DTITLE=Francesco De Gregori - Rimmel
DYEAR=1975
DGENRE=Pop
TTITLE0=Rimmel
TTITLE1=Pezzi Di Vetro
TTITLE2=Il Signor Hood (A M., Con Autonomia)
TTITLE3=Pablo
TTITLE4=Buonanotte Fiorellino
TTITLE5=Le Storie Di Ieri
TTITLE6=Quattro Cani
TTITLE7=Piccola Mela
TTITLE8=Piano Bar
EXTD=YEAR: 1975
EXTT0=
EXTT1=
EXTT2=
EXTT3=
EXTT4=
EXTT5=
EXTT6=
EXTT7=
EXTT8=
PLAYORDER=
